<?xml version="1.0" encoding="UTF-8" standalone="no"?>
<!-- Created with Inkscape (http://www.inkscape.org/) -->

<svg
   version="1.1"
   id="svg824"
   xml:space="preserve"
   width="275.86325"
   height="272.58237"
   viewBox="0 0 275.86326 272.58238"
   sodipodi:docname="favicon2.svg"
   inkscape:version="1.1 (c68e22c387, 2021-05-23)"
   xmlns:inkscape="http://www.inkscape.org/namespaces/inkscape"
   xmlns:sodipodi="http://sodipodi.sourceforge.net/DTD/sodipodi-0.dtd"
   xmlns="http://www.w3.org/2000/svg"
   xmlns:svg="http://www.w3.org/2000/svg"><defs
     id="defs828"><clipPath
       clipPathUnits="userSpaceOnUse"
       id="clipPath840"><path
         d="M 0,1000 H 1000 V 0 H 0 Z"
         id="path838" /></clipPath></defs><sodipodi:namedview
     id="namedview826"
     pagecolor="#ffffff"
     bordercolor="#666666"
     borderopacity="1.0"
     inkscape:pageshadow="2"
     inkscape:pageopacity="0.0"
     inkscape:pagecheckerboard="true"
     showgrid="false"
     fit-margin-top="0"
     fit-margin-left="0"
     fit-margin-right="0"
     fit-margin-bottom="0"
     inkscape:zoom="0.85725005"
     inkscape:cx="419.36422"
     inkscape:cy="275.88216"
     inkscape:window-width="2560"
     inkscape:window-height="1361"
     inkscape:window-x="2551"
     inkscape:window-y="-9"
     inkscape:window-maximized="1"
     inkscape:current-layer="g830" /><g
     id="g830"
     inkscape:groupmode="layer"
     inkscape:label="Logo Editable Source File"
     transform="matrix(1.3333333,0,0,-1.3333333,-247.15262,1129.1268)"><path
       d="M 185.36447,642.40836 H 392.26192 V 846.84514 H 185.36447 Z"
       style="fill:#ffffff;fill-opacity:0;fill-rule:nonzero;stroke:none;stroke-width:0.290935"
       id="path832" /><g
       id="g834"><g
         id="g836"
         clip-path="url(#clipPath840)"><g
           id="g842"
           transform="translate(409.1479,709.6602)"><path
             d="m 0,0 v 74.098 h 13.562 l 6.616,-3.308 c 4.631,0.881 10.198,1.654 16.705,2.315 6.505,0.662 13.947,0.993 22.329,0.993 h 8.269 c 5.513,0 9.758,-0.773 12.737,-2.316 2.977,-1.546 5.097,-3.473 6.366,-5.789 1.267,-2.315 2.04,-4.66 2.316,-7.029 0.274,-2.373 0.413,-4.383 0.413,-6.037 V 0 H 69.135 v 53.257 c 0,4.41 -2.645,6.616 -7.939,6.616 H 25.14 c -2.097,0 -3.448,-0.193 -4.053,-0.579 -0.607,-0.387 -0.909,-1.405 -0.909,-3.06 V 0 Z"
             style="fill:#1685fc;fill-opacity:1;fill-rule:nonzero;stroke:none"
             id="path844" /></g><g
           id="g846"
           transform="translate(536.0068,752.3325)"><path
             d="m 0,0 h 45.482 v 10.585 c 0,2.205 -0.248,3.748 -0.743,4.632 -0.496,0.881 -1.96,1.431 -4.384,1.654 -2.426,0.219 -6.561,0.33 -12.404,0.33 H 7.938 C 2.646,17.201 0,14.994 0,10.585 Z m 1.653,-42.672 c -5.515,0 -9.757,0.716 -12.735,2.15 -2.978,1.431 -5.101,3.251 -6.367,5.458 -1.27,2.204 -2.042,4.52 -2.317,6.946 -0.276,2.425 -0.412,4.631 -0.412,6.616 v 31.756 c 0,1.654 0.136,3.665 0.412,6.038 0.275,2.369 1.047,4.713 2.317,7.029 1.266,2.315 3.416,4.243 6.45,5.789 3.03,1.542 7.249,2.315 12.652,2.315 h 35.561 c 7.277,0 12.983,-0.69 17.118,-2.067 4.136,-1.38 7.055,-3.613 8.767,-6.699 1.707,-3.088 2.562,-7.223 2.562,-12.405 V -14.224 H 36.718 c -9.925,0 -18.003,0.22 -24.232,0.661 -6.23,0.439 -10.394,0.716 -12.486,0.827 v -9.096 c -0.112,-4.412 2.534,-6.616 7.938,-6.616 h 8.435 c 5.954,0 11.77,0.082 17.449,0.247 5.678,0.166 10.889,0.386 15.63,0.662 4.74,0.274 8.545,0.522 11.412,0.745 l 6.617,-10.751 c 0,-3.42 -10.862,-5.127 -32.584,-5.127 z"
             style="fill:#1685fc;fill-opacity:1;fill-rule:nonzero;stroke:none"
             id="path848" /></g><path
           d="M 621.681,783.758 H 641.86 V 709.66 h -20.179 z m 10.089,10.42 c -4.082,0 -7.058,0.826 -8.932,2.481 -1.876,1.653 -2.811,4.408 -2.811,8.269 0,3.97 0.91,6.753 2.729,8.353 1.819,1.597 4.822,2.398 9.014,2.398 4.189,0 7.22,-0.801 9.096,-2.398 1.874,-1.6 2.813,-4.383 2.813,-8.353 0,-3.749 -0.939,-6.478 -2.813,-8.187 -1.876,-1.71 -4.907,-2.563 -9.096,-2.563"
           style="fill:#1685fc;fill-opacity:1;fill-rule:nonzero;stroke:none"
           id="path850" /><g
           id="g852"
           transform="translate(665.1768,709.6602)"><path
             d="m 0,0 v 91.629 l -1.653,13.232 H 20.179 V 0 Z"
             style="fill:#1685fc;fill-opacity:1;fill-rule:nonzero;stroke:none"
             id="path854" /></g><g
           id="g856"
           transform="translate(730.8398,723.8843)"><path
             d="m 0,0 h 37.876 c 2.425,0 3.858,0.219 4.3,0.661 0.439,0.44 0.662,1.82 0.662,4.135 V 17.532 H 0 c -2.978,0 -5.045,-0.719 -6.202,-2.15 -1.157,-1.435 -1.736,-3.696 -1.736,-6.782 0,-3.088 0.661,-5.292 1.984,-6.616 C -4.631,0.661 -2.646,0 0,0 m -4.301,-14.224 c -8.381,0 -14.446,1.956 -18.194,5.871 -3.748,3.913 -5.622,9.289 -5.622,16.126 0,7.166 1.956,12.679 5.871,16.54 3.913,3.859 9.895,5.789 17.945,5.789 h 8.436 c 8.269,0 15.713,-0.223 22.328,-0.662 6.616,-0.441 12.074,-0.883 16.375,-1.323 v 10.916 c 0,0.993 -0.111,2.011 -0.331,3.06 -0.223,1.047 -0.885,1.902 -1.986,2.564 -1.103,0.662 -2.976,0.992 -5.624,0.992 h -8.268 c -12.021,0 -22.055,-0.193 -30.103,-0.579 -8.049,-0.387 -13.507,-0.743 -16.374,-1.075 l -1.819,12.57 c 0,1.543 4.188,2.481 12.569,2.812 8.379,0.331 22.383,0.497 42.012,0.497 h 8.27 c 5.511,0 9.758,-0.773 12.735,-2.316 2.977,-1.546 5.099,-3.474 6.368,-5.789 1.266,-2.315 2.038,-4.66 2.315,-7.029 0.274,-2.373 0.415,-4.384 0.415,-6.037 V -14.224 H 49.454 l -6.45,3.307 C 38.371,-11.689 32.803,-12.433 26.299,-13.149 19.79,-13.868 12.348,-14.224 3.97,-14.224 Z"
             style="fill:#1685fc;fill-opacity:1;fill-rule:nonzero;stroke:none"
             id="path858" /></g><g
           id="g860"
           transform="translate(314.498,657.7358)"><path
             d="m 0,0 c -5.655,0 -10.255,4.601 -10.255,10.255 0,5.654 4.6,10.255 10.255,10.255 5.655,0 10.255,-4.601 10.255,-10.255 C 10.255,4.601 5.655,0 0,0 m 7.901,25.577 v 12.66 L -7.901,53.895 V 25.577 C -13.448,22.705 -17.255,16.921 -17.255,10.255 -17.255,0.74 -9.514,-7 0,-7 c 9.514,0 17.255,7.74 17.255,17.255 0,6.666 -3.807,12.449 -9.354,15.322"
             style="fill:#1685fc;fill-opacity:1;fill-rule:nonzero;stroke:none"
             id="path862" /></g><g
           id="g864"
           transform="translate(267.5259,811.9609)"><path
             d="m 0,0 c -1.76,-1.46 -4.02,-2.32 -6.48,-2.32 -2.47,0 -4.72,0.86 -6.49,2.32 -0.14,0.12 -0.29,0.24 -0.42,0.36 -0.14,0.12 -0.27,0.25 -0.4,0.39 -0.26,0.26 -0.51,0.54 -0.74,0.83 -0.12,0.14 -0.23,0.29 -0.33,0.45 -0.11,0.15 -0.21,0.3 -0.31,0.46 -0.08,0.13 -0.16,0.25 -0.23,0.38 -0.23,0.4 -0.43,0.82 -0.6,1.25 -0.06,0.13 -0.11,0.26 -0.15,0.39 -0.07,0.18 -0.12,0.36 -0.18,0.55 -0.05,0.18 -0.1,0.36 -0.14,0.55 -0.04,0.15 -0.07,0.31 -0.1,0.47 -0.04,0.22 -0.08,0.45 -0.1,0.67 -0.05,0.39 -0.07,0.78 -0.07,1.18 0,1.77 0.45,3.43 1.24,4.88 0.16,0.3 0.33,0.58 0.51,0.85 0.09,0.14 0.19,0.27 0.29,0.4 0.3,0.4 0.62,0.78 0.97,1.12 1.86,1.86 4.42,3.01 7.25,3.01 2.83,0 5.38,-1.15 7.24,-3.01 0.35,-0.35 0.67,-0.72 0.97,-1.12 0.29,-0.39 0.56,-0.81 0.8,-1.25 C 3.32,11.36 3.77,9.7 3.77,7.93 3.77,7.53 3.75,7.14 3.7,6.75 3.68,6.53 3.64,6.3 3.6,6.08 3.57,5.92 3.54,5.76 3.5,5.61 3.46,5.42 3.41,5.24 3.36,5.06 3.3,4.87 3.25,4.69 3.18,4.51 3.14,4.38 3.09,4.25 3.03,4.12 2.86,3.69 2.66,3.27 2.43,2.87 2.36,2.74 2.28,2.62 2.2,2.49 2.1,2.33 2,2.18 1.89,2.03 1.79,1.87 1.68,1.72 1.56,1.58 1.33,1.29 1.08,1.01 0.82,0.75 0.57,0.48 0.29,0.23 0,0 m 10.77,7.93 c 0,9.51 -7.74,17.26 -17.25,17.26 -9.52,0 -17.26,-7.75 -17.26,-17.26 0,-6.4 3.51,-11.99 8.7,-14.96 v -6.96 h 0.02 v -39.19 h -0.02 v -43.86 c 0,-1.79 -0.98,-3.43 -2.58,-4.26 l -23.11,-11.91 c -2.16,-1.11 -3.99,-0.26 -4.69,0.17 -0.68,0.42 -2.29,1.66 -2.29,4.08 v 87.19 c 0,2.57 1.75,3.79 2.52,4.2 0.42,0.24 1.26,0.6 2.3,0.6 0.63,0 1.33,-0.13 2.07,-0.5 l 22,-21.42 v 22.04 l -12.2,11.89 -0.64,0.41 c -6.33,4.15 -14.4,4.48 -21.05,0.88 -6.67,-3.6 -10.8,-10.53 -10.8,-18.1 v -87.19 c 0,-7.24 3.7,-13.82 9.88,-17.58 6.17,-3.77 13.7,-4.03 20.14,-0.71 l 23.12,11.91 c 6.87,3.55 11.14,10.55 11.14,18.3 v 39.11 l 0.01,-0.02 v 22.05 l -0.01,0.01 v 28.18 c 5.89,2.75 10,8.72 10,15.64"
             style="fill:#1685fc;fill-opacity:1;fill-rule:nonzero;stroke:none"
             id="path866" /></g><g
           id="g868"
           transform="translate(360.8403,809.4409)"><path
             d="m 0,0 c -6.215,3.753 -13.774,3.977 -20.213,0.606 l -23.019,-12.089 c -6.795,-3.569 -11.009,-10.548 -11.009,-18.225 v -35.595 l 15.802,-15.302 v 50.897 c 0,1.777 0.975,3.41 2.555,4.24 l 23.018,12.075 c 2.16,1.133 4.004,0.29 4.701,-0.131 0.686,-0.421 2.305,-1.659 2.305,-4.096 v -89.059 c 0,-2.568 -1.751,-3.805 -2.515,-4.214 -0.685,-0.368 -2.423,-1.066 -4.372,-0.092 l -25.692,24.994 -15.802,15.381 -34.502,33.541 v -22.045 l 34.502,-33.553 15.802,-15.368 15.895,-15.46 0.631,-0.422 c 6.348,-4.134 14.407,-4.477 21.057,-0.868 6.664,3.595 10.798,10.535 10.798,18.106 V -17.62 C 9.942,-10.351 6.229,-3.766 0,0"
             style="fill:#1685fc;fill-opacity:1;fill-rule:nonzero;stroke:none"
             id="path870" /></g><g
           id="g872"
           transform="translate(268.2861,827.1406)"><path
             d="M 0,0 C 0.35,-0.34 0.68,-0.72 0.97,-1.12 0.67,-0.72 0.35,-0.35 0,0"
             style="fill:#ffffff;fill-opacity:1;fill-rule:nonzero;stroke:none"
             id="path874" /></g><g
           id="g876"
           transform="translate(270.0562,824.771)"><path
             d="M 0,0 C -0.24,0.44 -0.51,0.86 -0.8,1.25 -0.5,0.86 -0.23,0.44 0,0"
             style="fill:#ffffff;fill-opacity:1;fill-rule:nonzero;stroke:none"
             id="path878" /></g><path
           d="m 999.436,0 h -1000 v 500 h 1000 z"
           style="fill:#1685fc;fill-opacity:1;fill-rule:nonzero;stroke:none"
           id="path880" /><g
           id="g882"
           transform="translate(409.1479,209.709)"><path
             d="m 0,0 v 74.098 h 13.562 l 6.616,-3.309 c 4.631,0.882 10.198,1.654 16.705,2.316 6.505,0.662 13.947,0.993 22.329,0.993 h 8.269 c 5.513,0 9.758,-0.774 12.737,-2.316 2.977,-1.546 5.097,-3.473 6.366,-5.789 1.267,-2.315 2.04,-4.66 2.316,-7.029 0.274,-2.372 0.413,-4.383 0.413,-6.037 V 0 H 69.135 v 53.258 c 0,4.408 -2.645,6.615 -7.939,6.615 H 25.14 c -2.097,0 -3.448,-0.193 -4.053,-0.578 -0.607,-0.388 -0.909,-1.406 -0.909,-3.061 V 0 Z"
             style="fill:#ffffff;fill-opacity:1;fill-rule:nonzero;stroke:none"
             id="path884" /></g><g
           id="g886"
           transform="translate(536.0068,252.3818)"><path
             d="m 0,0 h 45.482 v 10.585 c 0,2.204 -0.248,3.747 -0.743,4.631 -0.496,0.881 -1.96,1.431 -4.384,1.654 -2.426,0.22 -6.561,0.33 -12.404,0.33 H 7.938 C 2.646,17.2 0,14.993 0,10.585 Z m 1.653,-42.673 c -5.515,0 -9.757,0.716 -12.735,2.151 -2.978,1.43 -5.101,3.251 -6.367,5.457 -1.27,2.205 -2.042,4.52 -2.317,6.947 -0.276,2.424 -0.412,4.631 -0.412,6.616 v 31.756 c 0,1.654 0.136,3.665 0.412,6.037 0.275,2.369 1.047,4.714 2.317,7.029 1.266,2.316 3.416,4.243 6.45,5.789 3.03,1.542 7.249,2.316 12.652,2.316 h 35.561 c 7.277,0 12.983,-0.691 17.118,-2.068 4.136,-1.38 7.055,-3.613 8.767,-6.698 1.707,-3.089 2.562,-7.223 2.562,-12.405 V -14.225 H 36.718 c -9.925,0 -18.003,0.22 -24.232,0.662 -6.23,0.439 -10.394,0.715 -12.486,0.827 v -9.097 c -0.112,-4.411 2.534,-6.615 7.938,-6.615 h 8.435 c 5.954,0 11.77,0.082 17.449,0.247 5.678,0.166 10.889,0.386 15.63,0.662 4.74,0.273 8.545,0.521 11.412,0.744 l 6.617,-10.751 c 0,-3.419 -10.862,-5.127 -32.584,-5.127 z"
             style="fill:#ffffff;fill-opacity:1;fill-rule:nonzero;stroke:none"
             id="path888" /></g><path
           d="m 621.681,283.807 h 20.179 v -74.098 h -20.179 z m 10.089,10.42 c -4.082,0 -7.058,0.826 -8.932,2.481 -1.876,1.653 -2.811,4.408 -2.811,8.27 0,3.969 0.91,6.751 2.729,8.352 1.819,1.597 4.822,2.399 9.014,2.399 4.189,0 7.22,-0.802 9.096,-2.399 1.874,-1.601 2.813,-4.383 2.813,-8.352 0,-3.75 -0.939,-6.48 -2.813,-8.188 -1.876,-1.711 -4.907,-2.563 -9.096,-2.563"
           style="fill:#ffffff;fill-opacity:1;fill-rule:nonzero;stroke:none"
           id="path890" /><g
           id="g892"
           transform="translate(665.1768,209.709)"><path
             d="m 0,0 v 91.63 l -1.653,13.231 H 20.179 V 0 Z"
             style="fill:#ffffff;fill-opacity:1;fill-rule:nonzero;stroke:none"
             id="path894" /></g><g
           id="g896"
           transform="translate(730.8398,223.9336)"><path
             d="m 0,0 h 37.876 c 2.425,0 3.858,0.219 4.3,0.661 0.439,0.44 0.662,1.819 0.662,4.135 V 17.531 H 0 c -2.978,0 -5.045,-0.719 -6.202,-2.149 -1.157,-1.435 -1.736,-3.696 -1.736,-6.782 0,-3.088 0.661,-5.292 1.984,-6.616 C -4.631,0.661 -2.646,0 0,0 m -4.301,-14.225 c -8.381,0 -14.446,1.956 -18.194,5.872 -3.748,3.913 -5.622,9.289 -5.622,16.125 0,7.167 1.956,12.679 5.871,16.54 3.913,3.859 9.895,5.79 17.945,5.79 h 8.436 c 8.269,0 15.713,-0.223 22.328,-0.663 6.616,-0.441 12.074,-0.882 16.375,-1.323 v 10.917 c 0,0.992 -0.111,2.01 -0.331,3.06 -0.223,1.047 -0.885,1.902 -1.986,2.563 -1.103,0.662 -2.976,0.992 -5.624,0.992 h -8.268 c -12.021,0 -22.055,-0.193 -30.103,-0.578 -8.049,-0.387 -13.507,-0.744 -16.374,-1.075 l -1.819,12.569 c 0,1.544 4.188,2.482 12.569,2.813 8.379,0.331 22.383,0.496 42.012,0.496 h 8.27 c 5.511,0 9.758,-0.773 12.735,-2.315 2.977,-1.546 5.099,-3.474 6.368,-5.789 1.266,-2.316 2.038,-4.661 2.315,-7.03 0.274,-2.372 0.415,-4.383 0.415,-6.037 V -14.225 H 49.454 l -6.45,3.308 C 38.371,-11.69 32.803,-12.434 26.299,-13.149 19.79,-13.868 12.348,-14.225 3.97,-14.225 Z"
             style="fill:#ffffff;fill-opacity:1;fill-rule:nonzero;stroke:none"
             id="path898" /></g><g
           id="g900"
           transform="translate(314.498,157.7842)"><path
             d="m 0,0 c -5.655,0 -10.255,4.601 -10.255,10.255 0,5.654 4.6,10.255 10.255,10.255 5.655,0 10.255,-4.601 10.255,-10.255 C 10.255,4.601 5.655,0 0,0 M 7.901,25.577 V 38.238 L -7.901,53.896 V 25.577 C -13.448,22.705 -17.255,16.922 -17.255,10.255 -17.255,0.74 -9.514,-7 0,-7 c 9.514,0 17.255,7.74 17.255,17.255 0,6.666 -3.807,12.45 -9.354,15.322"
             style="fill:#ffffff;fill-opacity:1;fill-rule:nonzero;stroke:none"
             id="path902" /></g><g
           id="g904"
           transform="translate(267.5259,312.0098)"><path
             d="m 0,0 c -1.76,-1.46 -4.02,-2.32 -6.48,-2.32 -2.47,0 -4.72,0.86 -6.49,2.32 -0.14,0.12 -0.29,0.24 -0.42,0.359 -0.14,0.12 -0.27,0.25 -0.4,0.391 -0.26,0.26 -0.51,0.54 -0.74,0.83 -0.12,0.14 -0.23,0.29 -0.33,0.449 -0.11,0.151 -0.21,0.301 -0.31,0.461 -0.08,0.13 -0.16,0.25 -0.23,0.38 -0.23,0.4 -0.43,0.819 -0.6,1.25 -0.06,0.13 -0.11,0.26 -0.15,0.39 -0.07,0.179 -0.12,0.36 -0.18,0.55 -0.05,0.18 -0.1,0.36 -0.14,0.549 -0.04,0.151 -0.07,0.311 -0.1,0.471 -0.04,0.22 -0.08,0.449 -0.1,0.67 -0.05,0.39 -0.07,0.779 -0.07,1.18 0,1.77 0.45,3.429 1.24,4.88 0.16,0.299 0.33,0.58 0.51,0.85 0.09,0.14 0.19,0.27 0.29,0.4 0.3,0.4 0.62,0.78 0.97,1.12 1.86,1.86 4.42,3.009 7.25,3.009 2.83,0 5.38,-1.149 7.24,-3.009 0.35,-0.35 0.67,-0.72 0.97,-1.12 0.29,-0.39 0.56,-0.81 0.8,-1.25 C 3.32,11.359 3.77,9.7 3.77,7.93 3.77,7.529 3.75,7.14 3.7,6.75 3.68,6.529 3.64,6.3 3.6,6.08 3.57,5.92 3.54,5.76 3.5,5.609 3.46,5.42 3.41,5.24 3.36,5.06 3.3,4.87 3.25,4.689 3.18,4.51 3.14,4.38 3.09,4.25 3.03,4.12 2.86,3.689 2.66,3.27 2.43,2.87 2.36,2.74 2.28,2.62 2.2,2.49 2.1,2.33 2,2.18 1.89,2.029 1.79,1.87 1.68,1.72 1.56,1.58 1.33,1.29 1.08,1.01 0.82,0.75 0.57,0.479 0.29,0.229 0,0 m 10.77,7.93 c 0,9.509 -7.74,17.259 -17.25,17.259 -9.52,0 -17.26,-7.75 -17.26,-17.259 0,-6.401 3.51,-11.991 8.7,-14.96 v -6.96 h 0.02 v -39.191 h -0.02 V -97.04 c 0,-1.79 -0.98,-3.431 -2.58,-4.26 l -23.11,-11.91 c -2.16,-1.11 -3.99,-0.261 -4.69,0.17 -0.68,0.42 -2.29,1.66 -2.29,4.08 v 87.189 c 0,2.571 1.75,3.791 2.52,4.201 0.42,0.24 1.26,0.599 2.3,0.599 0.63,0 1.33,-0.13 2.07,-0.5 l 22,-21.42 v 22.04 l -12.2,11.891 -0.64,0.41 c -6.33,4.15 -14.4,4.48 -21.05,0.88 -6.67,-3.601 -10.8,-10.53 -10.8,-18.101 v -87.189 c 0,-7.24 3.7,-13.82 9.88,-17.58 6.17,-3.771 13.7,-4.03 20.14,-0.71 l 23.12,11.91 c 6.87,3.55 11.14,10.55 11.14,18.3 v 39.109 l 0.01,-0.019 v 22.05 l -0.01,0.009 V -7.71 c 5.89,2.75 10,8.72 10,15.64"
             style="fill:#ffffff;fill-opacity:1;fill-rule:nonzero;stroke:none"
             id="path906" /></g><g
           id="g908"
           transform="translate(360.8403,309.4893)"><path
             d="m 0,0 c -6.215,3.754 -13.774,3.978 -20.213,0.606 l -23.019,-12.088 c -6.795,-3.569 -11.009,-10.548 -11.009,-18.226 v -35.595 l 15.802,-15.301 v 50.896 c 0,1.778 0.975,3.411 2.555,4.24 l 23.018,12.076 c 2.16,1.132 4.004,0.289 4.701,-0.131 0.686,-0.422 2.305,-1.66 2.305,-4.096 v -89.059 c 0,-2.568 -1.751,-3.805 -2.515,-4.215 -0.685,-0.368 -2.423,-1.066 -4.372,-0.091 l -25.692,24.994 -15.802,15.381 -34.502,33.54 v -22.044 l 34.502,-33.554 15.802,-15.367 15.895,-15.46 0.631,-0.422 c 6.348,-4.135 14.407,-4.478 21.057,-0.869 6.664,3.596 10.798,10.535 10.798,18.107 v 89.059 C 9.942,-10.35 6.229,-3.766 0,0"
             style="fill:#ffffff;fill-opacity:1;fill-rule:nonzero;stroke:none"
             id="path910" /></g><g
           id="g912"
           transform="translate(268.2861,327.1895)"><path
             d="M 0,0 C 0.35,-0.34 0.68,-0.72 0.97,-1.12 0.67,-0.72 0.35,-0.35 0,0"
             style="fill:#ffffff;fill-opacity:1;fill-rule:nonzero;stroke:none"
             id="path914" /></g><g
           id="g916"
           transform="translate(270.0562,324.8193)"><path
             d="M 0,0 C -0.24,0.44 -0.51,0.86 -0.8,1.25 -0.5,0.86 -0.23,0.44 0,0"
             style="fill:#ffffff;fill-opacity:1;fill-rule:nonzero;stroke:none"
             id="path918" /></g></g></g></g></svg>
