<?xml version="1.0" encoding="UTF-8"?>
<!-- Created with Inkscape (http://www.inkscape.org/) -->
<svg width="971.11" height="257.64" version="1.1" viewBox="0 0 971.11 257.64" xml:space="preserve" xmlns="http://www.w3.org/2000/svg"><defs><clipPath id="clipPath18"><path d="m0 1e3h1e3v-1e3h-1e3z"/></clipPath></defs><g transform="matrix(1.3333 0 0 -1.3333 -172.09 1121)"><path d="m129.07 647.5h728.33v193.23h-728.33z" fill-opacity="0"/><g clip-path="url(#clipPath18)"><g transform="translate(409.15 709.66)"><path d="m0 0v74.098h13.562l6.616-3.308c4.631 0.881 10.198 1.654 16.705 2.315 6.505 0.662 13.947 0.993 22.329 0.993h8.269c5.513 0 9.758-0.773 12.737-2.316 2.977-1.546 5.097-3.473 6.366-5.789 1.267-2.315 2.04-4.66 2.316-7.029 0.274-2.373 0.413-4.383 0.413-6.037v-52.927h-20.178v53.257c0 4.41-2.645 6.616-7.939 6.616h-36.056c-2.097 0-3.448-0.193-4.053-0.579-0.607-0.387-0.909-1.405-0.909-3.06v-56.234z" fill="#1685fc"/></g><g transform="translate(536.01 752.33)"><path d="m0 0h45.482v10.585c0 2.205-0.248 3.748-0.743 4.632-0.496 0.881-1.96 1.431-4.384 1.654-2.426 0.219-6.561 0.33-12.404 0.33h-20.013c-5.292 0-7.938-2.207-7.938-6.616zm1.653-42.672c-5.515 0-9.757 0.716-12.735 2.15-2.978 1.431-5.101 3.251-6.367 5.458-1.27 2.204-2.042 4.52-2.317 6.946-0.276 2.425-0.412 4.631-0.412 6.616v31.756c0 1.654 0.136 3.665 0.412 6.038 0.275 2.369 1.047 4.713 2.317 7.029 1.266 2.315 3.416 4.243 6.45 5.789 3.03 1.542 7.249 2.315 12.652 2.315h35.561c7.277 0 12.983-0.69 17.118-2.067 4.136-1.38 7.055-3.613 8.767-6.699 1.707-3.088 2.562-7.223 2.562-12.405v-24.478h-28.943c-9.925 0-18.003 0.22-24.232 0.661-6.23 0.439-10.394 0.716-12.486 0.827v-9.096c-0.112-4.412 2.534-6.616 7.938-6.616h8.435c5.954 0 11.77 0.082 17.449 0.247 5.678 0.166 10.889 0.386 15.63 0.662 4.74 0.274 8.545 0.522 11.412 0.745l6.617-10.751c0-3.42-10.862-5.127-32.584-5.127z" fill="#1685fc"/></g><path d="m621.68 783.76h20.179v-74.098h-20.179zm10.089 10.42c-4.082 0-7.058 0.826-8.932 2.481-1.876 1.653-2.811 4.408-2.811 8.269 0 3.97 0.91 6.753 2.729 8.353 1.819 1.597 4.822 2.398 9.014 2.398 4.189 0 7.22-0.801 9.096-2.398 1.874-1.6 2.813-4.383 2.813-8.353 0-3.749-0.939-6.478-2.813-8.187-1.876-1.71-4.907-2.563-9.096-2.563" fill="#1685fc"/><g transform="translate(665.18 709.66)"><path d="m0 0v91.629l-1.653 13.232h21.832v-104.86z" fill="#1685fc"/></g><g transform="translate(730.84 723.88)"><path d="m0 0h37.876c2.425 0 3.858 0.219 4.3 0.661 0.439 0.44 0.662 1.82 0.662 4.135v12.736h-42.838c-2.978 0-5.045-0.719-6.202-2.15-1.157-1.435-1.736-3.696-1.736-6.782 0-3.088 0.661-5.292 1.984-6.616 1.323-1.323 3.308-1.984 5.954-1.984m-4.301-14.224c-8.381 0-14.446 1.956-18.194 5.871-3.748 3.913-5.622 9.289-5.622 16.126 0 7.166 1.956 12.679 5.871 16.54 3.913 3.859 9.895 5.789 17.945 5.789h8.436c8.269 0 15.713-0.223 22.328-0.662 6.616-0.441 12.074-0.883 16.375-1.323v10.916c0 0.993-0.111 2.011-0.331 3.06-0.223 1.047-0.885 1.902-1.986 2.564-1.103 0.662-2.976 0.992-5.624 0.992h-8.268c-12.021 0-22.055-0.193-30.103-0.579-8.049-0.387-13.507-0.743-16.374-1.075l-1.819 12.57c0 1.543 4.188 2.481 12.569 2.812 8.379 0.331 22.383 0.497 42.012 0.497h8.27c5.511 0 9.758-0.773 12.735-2.316 2.977-1.546 5.099-3.474 6.368-5.789 1.266-2.315 2.038-4.66 2.315-7.029 0.274-2.373 0.415-4.384 0.415-6.037v-52.927h-13.563l-6.45 3.307c-4.633-0.772-10.201-1.516-16.705-2.232-6.509-0.719-13.951-1.075-22.329-1.075z" fill="#1685fc"/></g><g transform="translate(314.5 657.74)"><path d="m0 0c-5.655 0-10.255 4.601-10.255 10.255s4.6 10.255 10.255 10.255 10.255-4.601 10.255-10.255-4.6-10.255-10.255-10.255m7.901 25.577v12.66l-15.802 15.658v-28.318c-5.547-2.872-9.354-8.656-9.354-15.322 0-9.515 7.741-17.255 17.255-17.255s17.255 7.74 17.255 17.255c0 6.666-3.807 12.449-9.354 15.322" fill="#1685fc"/></g><g transform="translate(267.53 811.96)"><path d="m0 0c-1.76-1.46-4.02-2.32-6.48-2.32-2.47 0-4.72 0.86-6.49 2.32-0.14 0.12-0.29 0.24-0.42 0.36-0.14 0.12-0.27 0.25-0.4 0.39-0.26 0.26-0.51 0.54-0.74 0.83-0.12 0.14-0.23 0.29-0.33 0.45-0.11 0.15-0.21 0.3-0.31 0.46-0.08 0.13-0.16 0.25-0.23 0.38-0.23 0.4-0.43 0.82-0.6 1.25-0.06 0.13-0.11 0.26-0.15 0.39-0.07 0.18-0.12 0.36-0.18 0.55-0.05 0.18-0.1 0.36-0.14 0.55-0.04 0.15-0.07 0.31-0.1 0.47-0.04 0.22-0.08 0.45-0.1 0.67-0.05 0.39-0.07 0.78-0.07 1.18 0 1.77 0.45 3.43 1.24 4.88 0.16 0.3 0.33 0.58 0.51 0.85 0.09 0.14 0.19 0.27 0.29 0.4 0.3 0.4 0.62 0.78 0.97 1.12 1.86 1.86 4.42 3.01 7.25 3.01s5.38-1.15 7.24-3.01c0.35-0.35 0.67-0.72 0.97-1.12 0.29-0.39 0.56-0.81 0.8-1.25 0.79-1.45 1.24-3.11 1.24-4.88 0-0.4-0.02-0.79-0.07-1.18-0.02-0.22-0.06-0.45-0.1-0.67-0.03-0.16-0.06-0.32-0.1-0.47-0.04-0.19-0.09-0.37-0.14-0.55-0.06-0.19-0.11-0.37-0.18-0.55-0.04-0.13-0.09-0.26-0.15-0.39-0.17-0.43-0.37-0.85-0.6-1.25-0.07-0.13-0.15-0.25-0.23-0.38-0.1-0.16-0.2-0.31-0.31-0.46-0.1-0.16-0.21-0.31-0.33-0.45-0.23-0.29-0.48-0.57-0.74-0.83-0.25-0.27-0.53-0.52-0.82-0.75m10.77 7.93c0 9.51-7.74 17.26-17.25 17.26-9.52 0-17.26-7.75-17.26-17.26 0-6.4 3.51-11.99 8.7-14.96v-6.96h0.02v-39.19h-0.02v-43.86c0-1.79-0.98-3.43-2.58-4.26l-23.11-11.91c-2.16-1.11-3.99-0.26-4.69 0.17-0.68 0.42-2.29 1.66-2.29 4.08v87.19c0 2.57 1.75 3.79 2.52 4.2 0.42 0.24 1.26 0.6 2.3 0.6 0.63 0 1.33-0.13 2.07-0.5l22-21.42v22.04l-12.2 11.89-0.64 0.41c-6.33 4.15-14.4 4.48-21.05 0.88-6.67-3.6-10.8-10.53-10.8-18.1v-87.19c0-7.24 3.7-13.82 9.88-17.58 6.17-3.77 13.7-4.03 20.14-0.71l23.12 11.91c6.87 3.55 11.14 10.55 11.14 18.3v39.11l0.01-0.02v22.05l-0.01 0.01v28.18c5.89 2.75 10 8.72 10 15.64" fill="#1685fc"/></g><g transform="translate(360.84 809.44)"><path d="m0 0c-6.215 3.753-13.774 3.977-20.213 0.606l-23.019-12.089c-6.795-3.569-11.009-10.548-11.009-18.225v-35.595l15.802-15.302v50.897c0 1.777 0.975 3.41 2.555 4.24l23.018 12.075c2.16 1.133 4.004 0.29 4.701-0.131 0.686-0.421 2.305-1.659 2.305-4.096v-89.059c0-2.568-1.751-3.805-2.515-4.214-0.685-0.368-2.423-1.066-4.372-0.092l-25.692 24.994-15.802 15.381-34.502 33.541v-22.045l50.304-48.921 15.895-15.46 0.631-0.422c6.348-4.134 14.407-4.477 21.057-0.868 6.664 3.595 10.798 10.535 10.798 18.106v89.059c0 7.269-3.713 13.854-9.942 17.62" fill="#1685fc"/></g><g transform="translate(268.29 827.14)"><path d="m0 0c0.35-0.34 0.68-0.72 0.97-1.12-0.3 0.4-0.62 0.77-0.97 1.12" fill="#fff"/></g><g transform="translate(270.06 824.77)"><path d="m0 0c-0.24 0.44-0.51 0.86-0.8 1.25 0.3-0.39 0.57-0.81 0.8-1.25" fill="#fff"/></g><path d="m999.44 0h-1e3v500h1e3z" fill="#1685fc"/><g transform="translate(409.15 209.71)"><path d="m0 0v74.098h13.562l6.616-3.309c4.631 0.882 10.198 1.654 16.705 2.316 6.505 0.662 13.947 0.993 22.329 0.993h8.269c5.513 0 9.758-0.774 12.737-2.316 2.977-1.546 5.097-3.473 6.366-5.789 1.267-2.315 2.04-4.66 2.316-7.029 0.274-2.372 0.413-4.383 0.413-6.037v-52.927h-20.178v53.258c0 4.408-2.645 6.615-7.939 6.615h-36.056c-2.097 0-3.448-0.193-4.053-0.578-0.607-0.388-0.909-1.406-0.909-3.061v-56.234z" fill="#fff"/></g><g transform="translate(536.01 252.38)"><path d="m0 0h45.482v10.585c0 2.204-0.248 3.747-0.743 4.631-0.496 0.881-1.96 1.431-4.384 1.654-2.426 0.22-6.561 0.33-12.404 0.33h-20.013c-5.292 0-7.938-2.207-7.938-6.615zm1.653-42.673c-5.515 0-9.757 0.716-12.735 2.151-2.978 1.43-5.101 3.251-6.367 5.457-1.27 2.205-2.042 4.52-2.317 6.947-0.276 2.424-0.412 4.631-0.412 6.616v31.756c0 1.654 0.136 3.665 0.412 6.037 0.275 2.369 1.047 4.714 2.317 7.029 1.266 2.316 3.416 4.243 6.45 5.789 3.03 1.542 7.249 2.316 12.652 2.316h35.561c7.277 0 12.983-0.691 17.118-2.068 4.136-1.38 7.055-3.613 8.767-6.698 1.707-3.089 2.562-7.223 2.562-12.405v-24.479h-28.943c-9.925 0-18.003 0.22-24.232 0.662-6.23 0.439-10.394 0.715-12.486 0.827v-9.097c-0.112-4.411 2.534-6.615 7.938-6.615h8.435c5.954 0 11.77 0.082 17.449 0.247 5.678 0.166 10.889 0.386 15.63 0.662 4.74 0.273 8.545 0.521 11.412 0.744l6.617-10.751c0-3.419-10.862-5.127-32.584-5.127z" fill="#fff"/></g><path d="m621.68 283.81h20.179v-74.098h-20.179zm10.089 10.42c-4.082 0-7.058 0.826-8.932 2.481-1.876 1.653-2.811 4.408-2.811 8.27 0 3.969 0.91 6.751 2.729 8.352 1.819 1.597 4.822 2.399 9.014 2.399 4.189 0 7.22-0.802 9.096-2.399 1.874-1.601 2.813-4.383 2.813-8.352 0-3.75-0.939-6.48-2.813-8.188-1.876-1.711-4.907-2.563-9.096-2.563" fill="#fff"/><g transform="translate(665.18 209.71)"><path d="m0 0v91.63l-1.653 13.231h21.832v-104.86z" fill="#fff"/></g><g transform="translate(730.84 223.93)"><path d="m0 0h37.876c2.425 0 3.858 0.219 4.3 0.661 0.439 0.44 0.662 1.819 0.662 4.135v12.735h-42.838c-2.978 0-5.045-0.719-6.202-2.149-1.157-1.435-1.736-3.696-1.736-6.782 0-3.088 0.661-5.292 1.984-6.616 1.323-1.323 3.308-1.984 5.954-1.984m-4.301-14.225c-8.381 0-14.446 1.956-18.194 5.872-3.748 3.913-5.622 9.289-5.622 16.125 0 7.167 1.956 12.679 5.871 16.54 3.913 3.859 9.895 5.79 17.945 5.79h8.436c8.269 0 15.713-0.223 22.328-0.663 6.616-0.441 12.074-0.882 16.375-1.323v10.917c0 0.992-0.111 2.01-0.331 3.06-0.223 1.047-0.885 1.902-1.986 2.563-1.103 0.662-2.976 0.992-5.624 0.992h-8.268c-12.021 0-22.055-0.193-30.103-0.578-8.049-0.387-13.507-0.744-16.374-1.075l-1.819 12.569c0 1.544 4.188 2.482 12.569 2.813 8.379 0.331 22.383 0.496 42.012 0.496h8.27c5.511 0 9.758-0.773 12.735-2.315 2.977-1.546 5.099-3.474 6.368-5.789 1.266-2.316 2.038-4.661 2.315-7.03 0.274-2.372 0.415-4.383 0.415-6.037v-52.927h-13.563l-6.45 3.308c-4.633-0.773-10.201-1.517-16.705-2.232-6.509-0.719-13.951-1.076-22.329-1.076z" fill="#fff"/></g><g transform="translate(314.5 157.78)"><path d="m0 0c-5.655 0-10.255 4.601-10.255 10.255s4.6 10.255 10.255 10.255 10.255-4.601 10.255-10.255-4.6-10.255-10.255-10.255m7.901 25.577v12.661l-15.802 15.658v-28.319c-5.547-2.872-9.354-8.655-9.354-15.322 0-9.515 7.741-17.255 17.255-17.255s17.255 7.74 17.255 17.255c0 6.666-3.807 12.45-9.354 15.322" fill="#fff"/></g><g transform="translate(267.53 312.01)"><path d="m0 0c-1.76-1.46-4.02-2.32-6.48-2.32-2.47 0-4.72 0.86-6.49 2.32-0.14 0.12-0.29 0.24-0.42 0.359-0.14 0.12-0.27 0.25-0.4 0.391-0.26 0.26-0.51 0.54-0.74 0.83-0.12 0.14-0.23 0.29-0.33 0.449-0.11 0.151-0.21 0.301-0.31 0.461-0.08 0.13-0.16 0.25-0.23 0.38-0.23 0.4-0.43 0.819-0.6 1.25-0.06 0.13-0.11 0.26-0.15 0.39-0.07 0.179-0.12 0.36-0.18 0.55-0.05 0.18-0.1 0.36-0.14 0.549-0.04 0.151-0.07 0.311-0.1 0.471-0.04 0.22-0.08 0.449-0.1 0.67-0.05 0.39-0.07 0.779-0.07 1.18 0 1.77 0.45 3.429 1.24 4.88 0.16 0.299 0.33 0.58 0.51 0.85 0.09 0.14 0.19 0.27 0.29 0.4 0.3 0.4 0.62 0.78 0.97 1.12 1.86 1.86 4.42 3.009 7.25 3.009s5.38-1.149 7.24-3.009c0.35-0.35 0.67-0.72 0.97-1.12 0.29-0.39 0.56-0.81 0.8-1.25 0.79-1.451 1.24-3.11 1.24-4.88 0-0.401-0.02-0.79-0.07-1.18-0.02-0.221-0.06-0.45-0.1-0.67-0.03-0.16-0.06-0.32-0.1-0.471-0.04-0.189-0.09-0.369-0.14-0.549-0.06-0.19-0.11-0.371-0.18-0.55-0.04-0.13-0.09-0.26-0.15-0.39-0.17-0.431-0.37-0.85-0.6-1.25-0.07-0.13-0.15-0.25-0.23-0.38-0.1-0.16-0.2-0.31-0.31-0.461-0.1-0.159-0.21-0.309-0.33-0.449-0.23-0.29-0.48-0.57-0.74-0.83-0.25-0.271-0.53-0.521-0.82-0.75m10.77 7.93c0 9.509-7.74 17.259-17.25 17.259-9.52 0-17.26-7.75-17.26-17.259 0-6.401 3.51-11.991 8.7-14.96v-6.96h0.02v-39.191h-0.02v-43.859c0-1.79-0.98-3.431-2.58-4.26l-23.11-11.91c-2.16-1.11-3.99-0.261-4.69 0.17-0.68 0.42-2.29 1.66-2.29 4.08v87.189c0 2.571 1.75 3.791 2.52 4.201 0.42 0.24 1.26 0.599 2.3 0.599 0.63 0 1.33-0.13 2.07-0.5l22-21.42v22.04l-12.2 11.891-0.64 0.41c-6.33 4.15-14.4 4.48-21.05 0.88-6.67-3.601-10.8-10.53-10.8-18.101v-87.189c0-7.24 3.7-13.82 9.88-17.58 6.17-3.771 13.7-4.03 20.14-0.71l23.12 11.91c6.87 3.55 11.14 10.55 11.14 18.3v39.109l0.01-0.019v22.05l-0.01 9e-3v28.181c5.89 2.75 10 8.72 10 15.64" fill="#fff"/></g><g transform="translate(360.84 309.49)"><path d="m0 0c-6.215 3.754-13.774 3.978-20.213 0.606l-23.019-12.088c-6.795-3.569-11.009-10.548-11.009-18.226v-35.595l15.802-15.301v50.896c0 1.778 0.975 3.411 2.555 4.24l23.018 12.076c2.16 1.132 4.004 0.289 4.701-0.131 0.686-0.422 2.305-1.66 2.305-4.096v-89.059c0-2.568-1.751-3.805-2.515-4.215-0.685-0.368-2.423-1.066-4.372-0.091l-25.692 24.994-15.802 15.381-34.502 33.54v-22.044l34.502-33.554 15.802-15.367 15.895-15.46 0.631-0.422c6.348-4.135 14.407-4.478 21.057-0.869 6.664 3.596 10.798 10.535 10.798 18.107v89.059c0 7.269-3.713 13.853-9.942 17.619" fill="#fff"/></g><g transform="translate(268.29 327.19)"><path d="m0 0c0.35-0.34 0.68-0.72 0.97-1.12-0.3 0.4-0.62 0.77-0.97 1.12" fill="#fff"/></g><g transform="translate(270.06 324.82)"><path d="m0 0c-0.24 0.44-0.51 0.86-0.8 1.25 0.3-0.39 0.57-0.81 0.8-1.25" fill="#fff"/></g></g></g></svg>
